<?xml version="1.0" standalone="no"?>
<!DOCTYPE svg PUBLIC "-//W3C//DTD SVG 20010904//EN"
 "http://www.w3.org/TR/2001/REC-SVG-20010904/DTD/svg10.dtd">
<svg version="1.0" xmlns="http://www.w3.org/2000/svg"
 width="200.000000pt" height="200.000000pt" viewBox="0 0 200.000000 200.000000"
 preserveAspectRatio="xMidYMid meet">

<g transform="translate(0.000000,200.000000) scale(0.100000,-0.100000)"
fill="#000000" stroke="none">
<path d="M5 1455 l0 -545 189 0 189 0 -7 228 c-3 125 -9 308 -13 407 -3 99 -4
178 -1 175 3 -3 85 -186 183 -407 l178 -403 37 0 36 0 -33 -68 c-82 -165 -78
-433 10 -582 59 -101 173 -182 312 -222 71 -20 101 -23 270 -22 178 0 196 2
279 27 49 15 114 40 145 54 69 33 150 112 185 181 l26 52 -54 24 c-30 13 -101
46 -157 72 -73 35 -104 45 -107 36 -11 -35 -73 -99 -116 -121 -41 -21 -67 -26
-152 -29 -131 -5 -198 13 -259 69 -105 97 -108 287 -5 386 95 93 294 97 444 9
36 -21 60 -46 91 -94 1 -1 44 17 96 41 52 24 121 54 154 67 33 13 62 24 63 26
2 1 -12 26 -31 56 -67 105 -179 187 -310 227 -80 24 -265 45 -343 39 l-55 -5
2 431 1 431 -181 3 -181 2 6 -132 c9 -237 23 -703 20 -706 -2 -1 -84 186 -184
415 l-180 418 -274 3 -273 2 0 -545z"/>
</g>
</svg>
